<?xml version="1.0" encoding="utf-8"?>
<!-- Generator: Adobe Illustrator 24.2.3, SVG Export Plug-In . SVG Version: 6.00 Build 0)  -->
<svg version="1.1" id="Layer_1" xmlns="http://www.w3.org/2000/svg" xmlns:xlink="http://www.w3.org/1999/xlink" x="0px" y="0px"
	 viewBox="0 0 480 480" style="enable-background:new 0 0 480 480;" xml:space="preserve">
<style type="text/css">
	.st0{fill:#EEB020;}
	.st1{fill:#5FA03C;}
	.st2{fill:none;stroke:#5FA03C;stroke-width:7;stroke-miterlimit:10;}
	.st3{fill:#FFFFFF;}
</style>
<g>
	<g>
		<g>
			<g>
				<path class="st0" d="M105.73,394.45c0,5.27-0.92,9.69-2.76,13.26c-1.84,3.57-4.35,6.27-7.53,8.1c-3.18,1.82-6.78,2.74-10.8,2.74
					c-3.98,0-7.56-0.91-10.76-2.74s-5.72-4.52-7.56-8.1c-1.84-3.57-2.76-7.99-2.76-13.26c0-5.27,0.95-9.69,2.84-13.26
					c1.89-3.57,4.42-6.27,7.6-8.1c3.17-1.82,6.73-2.74,10.65-2.74c3.97,0,7.55,0.91,10.73,2.74c3.17,1.82,5.7,4.52,7.56,8.1
					C104.79,384.76,105.73,389.18,105.73,394.45z M99.69,394.45c0-6.03-1.37-10.68-4.11-13.95c-2.74-3.27-6.39-4.9-10.94-4.9
					c-4.51,0-8.13,1.63-10.87,4.9c-2.74,3.27-4.11,7.92-4.11,13.95c0,6.03,1.36,10.68,4.07,13.95c2.71,3.27,6.35,4.9,10.91,4.9
					c4.6,0,8.27-1.63,10.98-4.9C98.33,405.13,99.69,400.48,99.69,394.45z"/>
				<path class="st0" d="M145.29,394.37v7.75h-5.82v-7.45c0-2.84-0.76-4.91-2.29-6.23c-1.53-1.32-3.58-1.98-6.15-1.98
					c-1.94,0-3.66,0.25-5.16,0.76c-1.5,0.51-2.79,1.09-3.85,1.75v13.15h-5.82v-12.85c0-1.06,0.21-1.94,0.62-2.62
					c0.41-0.68,1.13-1.36,2.15-2.01c1.26-0.76,2.93-1.48,5.02-2.17c2.08-0.69,4.44-1.03,7.05-1.03c4.41,0,7.89,1.05,10.44,3.15
					C144.01,386.71,145.29,389.96,145.29,394.37z M116.2,397.95h5.82v19.46c-0.24,0.1-0.61,0.21-1.09,0.34
					c-0.48,0.13-1.02,0.19-1.6,0.19c-1.02,0-1.79-0.21-2.33-0.64c-0.53-0.43-0.8-1.13-0.8-2.09V397.95z M139.47,397.95h5.82v19.46
					c-0.24,0.1-0.62,0.21-1.13,0.34c-0.51,0.13-1.03,0.19-1.56,0.19c-1.07,0-1.85-0.21-2.36-0.64c-0.51-0.43-0.76-1.13-0.76-2.09
					V397.95z"/>
				<path class="st0" d="M163.61,401.29l-5.82-0.84V368.3c0.24-0.1,0.62-0.21,1.13-0.34c0.51-0.13,1.03-0.19,1.56-0.19
					c1.07,0,1.85,0.22,2.36,0.65c0.51,0.43,0.76,1.13,0.76,2.09V401.29z M157.79,397.49l5.82,0.91v19c-0.24,0.1-0.61,0.21-1.09,0.34
					c-0.49,0.13-1.02,0.19-1.6,0.19c-1.02,0-1.79-0.21-2.33-0.64c-0.53-0.43-0.8-1.13-0.8-2.09V397.49z"/>
				<path class="st0" d="M175.61,371.34c0-1.06,0.36-1.96,1.09-2.7c0.73-0.73,1.62-1.1,2.69-1.1c1.11,0,2.01,0.37,2.69,1.1
					c0.68,0.73,1.02,1.63,1.02,2.7s-0.34,1.96-1.02,2.7c-0.68,0.73-1.58,1.1-2.69,1.1c-1.07,0-1.96-0.37-2.69-1.1
					C175.97,373.31,175.61,372.41,175.61,371.34z M182.3,400.45h-5.82v-17.86c0.24-0.1,0.62-0.21,1.13-0.34s1.05-0.19,1.64-0.19
					c1.02,0,1.78,0.21,2.29,0.64c0.51,0.43,0.76,1.15,0.76,2.17V400.45z M176.48,397.49h5.82v19.91c-0.24,0.1-0.61,0.21-1.09,0.34
					c-0.49,0.13-1.02,0.19-1.6,0.19c-1.02,0-1.79-0.21-2.33-0.64c-0.53-0.43-0.8-1.13-0.8-2.09V397.49z"/>
				<path class="st0" d="M223.75,394.37v7.75h-5.82v-7.45c0-2.84-0.76-4.91-2.29-6.23c-1.53-1.32-3.58-1.98-6.15-1.98
					c-1.94,0-3.66,0.25-5.16,0.76c-1.5,0.51-2.79,1.09-3.85,1.75v13.15h-5.82v-12.85c0-1.06,0.21-1.94,0.62-2.62
					c0.41-0.68,1.13-1.36,2.15-2.01c1.26-0.76,2.93-1.48,5.02-2.17c2.08-0.69,4.44-1.03,7.05-1.03c4.41,0,7.89,1.05,10.44,3.15
					C222.48,386.71,223.75,389.96,223.75,394.37z M194.66,397.95h5.82v19.46c-0.24,0.1-0.61,0.21-1.09,0.34
					c-0.48,0.13-1.02,0.19-1.6,0.19c-1.02,0-1.79-0.21-2.33-0.64c-0.53-0.43-0.8-1.13-0.8-2.09V397.95z M217.93,397.95h5.82v19.46
					c-0.24,0.1-0.62,0.21-1.13,0.34c-0.51,0.13-1.03,0.19-1.56,0.19c-1.07,0-1.85-0.21-2.36-0.64c-0.51-0.43-0.76-1.13-0.76-2.09
					V397.95z"/>
				<path class="st0" d="M237.78,403.88l-0.29-4.79l21.96-3.12c-0.19-2.79-1.12-5.08-2.76-6.88c-1.65-1.8-3.93-2.7-6.84-2.7
					c-3.01,0-5.49,1.13-7.45,3.38c-1.96,2.25-2.94,5.48-2.94,9.69v1.67c0.34,4.05,1.61,7.13,3.82,9.23c2.21,2.1,5.22,3.15,9.05,3.15
					c2.04,0,3.88-0.35,5.53-1.06c1.65-0.71,2.96-1.47,3.93-2.28c0.53,0.36,0.96,0.77,1.27,1.25c0.32,0.48,0.47,1.03,0.47,1.63
					c0,0.96-0.52,1.86-1.56,2.7c-1.04,0.84-2.42,1.51-4.14,2.02c-1.72,0.51-3.65,0.76-5.78,0.76c-3.73,0-6.97-0.71-9.71-2.13
					c-2.74-1.42-4.85-3.54-6.33-6.35c-1.48-2.81-2.22-6.24-2.22-10.3c0-2.89,0.4-5.46,1.2-7.71c0.8-2.25,1.91-4.17,3.34-5.74
					c1.43-1.57,3.14-2.78,5.13-3.61c1.99-0.84,4.14-1.25,6.47-1.25c2.96,0,5.56,0.66,7.82,1.98c2.25,1.32,4.02,3.15,5.31,5.51
					c1.28,2.36,1.93,5.05,1.93,8.09c0,1.12-0.24,1.91-0.73,2.39c-0.49,0.48-1.16,0.77-2.04,0.88L237.78,403.88z"/>
				<path class="st1" d="M287.67,413.38c3.25,0,5.71-0.77,7.38-2.32c1.67-1.54,2.51-3.53,2.51-5.97c0-2.08-0.64-3.8-1.93-5.17
					c-1.29-1.37-3.31-2.46-6.07-3.27l-6.33-1.98c-2.04-0.66-3.81-1.51-5.31-2.55c-1.5-1.04-2.65-2.33-3.45-3.88
					c-0.8-1.54-1.2-3.36-1.2-5.43c0-3.9,1.36-6.96,4.07-9.16c2.71-2.2,6.33-3.31,10.83-3.31c2.62,0,4.96,0.29,7.02,0.88
					c2.06,0.58,3.68,1.33,4.87,2.24c1.19,0.91,1.78,1.88,1.78,2.89c0,0.66-0.17,1.25-0.51,1.79c-0.34,0.53-0.78,0.95-1.31,1.25
					c-1.21-1.01-2.85-1.9-4.91-2.66c-2.06-0.76-4.3-1.14-6.73-1.14c-2.81,0-5.04,0.64-6.69,1.94c-1.65,1.29-2.47,3.05-2.47,5.28
					c0,1.77,0.59,3.22,1.78,4.33c1.19,1.12,3.11,2.08,5.78,2.89l4.44,1.37c3.83,1.12,6.85,2.74,9.05,4.87
					c2.21,2.13,3.31,5.07,3.31,8.82c0,4-1.39,7.25-4.18,9.73c-2.79,2.48-6.7,3.72-11.74,3.72c-2.96,0-5.54-0.34-7.75-1.03
					c-2.21-0.68-3.93-1.54-5.16-2.58c-1.24-1.04-1.85-2.06-1.85-3.08c0-0.86,0.25-1.58,0.76-2.17s1.1-1,1.78-1.25
					c1.12,1.12,2.69,2.22,4.73,3.31S284.71,413.38,287.67,413.38z"/>
				<path class="st1" d="M319.45,400.45h-5.82V368.3c0.24-0.1,0.62-0.21,1.13-0.34c0.51-0.13,1.05-0.19,1.64-0.19
					c1.02,0,1.78,0.22,2.29,0.65c0.51,0.43,0.76,1.13,0.76,2.09V400.45z M313.63,397.49h5.82v19.91c-0.24,0.1-0.61,0.21-1.09,0.34
					c-0.49,0.13-1.02,0.19-1.6,0.19c-1.02,0-1.79-0.21-2.33-0.64c-0.53-0.43-0.8-1.13-0.8-2.09V397.49z M342.65,402.43h-5.82v-6.99
					c0-3.04-0.81-5.29-2.44-6.77c-1.63-1.47-3.72-2.2-6.29-2.2c-1.89,0-3.65,0.38-5.27,1.14c-1.63,0.76-2.99,1.67-4.11,2.74
					l-1.09-4.94c1.16-0.86,2.7-1.74,4.62-2.62c1.92-0.88,4.13-1.33,6.65-1.33c4.02,0,7.32,1.14,9.89,3.42
					c2.57,2.28,3.85,5.75,3.85,10.41V402.43z M336.83,397.57l5.82,0.08v19.76c-0.24,0.1-0.62,0.21-1.13,0.34
					c-0.51,0.13-1.03,0.19-1.56,0.19c-1.07,0-1.85-0.21-2.36-0.64c-0.51-0.43-0.76-1.13-0.76-2.09V397.57z"/>
				<path class="st1" d="M385.77,400c0,3.75-0.68,7.02-2.04,9.8c-1.36,2.79-3.27,4.94-5.75,6.46c-2.47,1.52-5.38,2.28-8.73,2.28
					c-3.34,0-6.27-0.76-8.76-2.28c-2.5-1.52-4.42-3.67-5.78-6.46c-1.36-2.79-2.04-6.05-2.04-9.8c0-3.8,0.69-7.08,2.07-9.84
					c1.38-2.76,3.32-4.9,5.82-6.42c2.5-1.52,5.39-2.28,8.69-2.28c3.3,0,6.18,0.76,8.65,2.28c2.47,1.52,4.4,3.66,5.78,6.42
					C385.08,392.92,385.77,396.2,385.77,400z M369.26,386.47c-3.25,0-5.83,1.2-7.75,3.61c-1.92,2.41-2.87,5.71-2.87,9.92
					c0,4.26,0.93,7.58,2.8,9.96c1.87,2.38,4.47,3.57,7.82,3.57c3.3,0,5.88-1.2,7.75-3.61c1.87-2.41,2.8-5.71,2.8-9.92
					c0-4.21-0.93-7.51-2.8-9.92C375.14,387.67,372.56,386.47,369.26,386.47z"/>
				<path class="st1" d="M404.28,417.59c-1.82-0.63-3.14-1.33-3.96-2.09v-5.63c0.97,0.96,2.19,1.81,3.67,2.55
					c1.48,0.73,3.26,1.1,5.35,1.1c3.39,0,6.12-1.08,8.18-3.23c2.06-2.15,3.09-5.61,3.09-10.38c0-3.34-0.52-5.99-1.56-7.94
					c-1.04-1.95-2.42-3.36-4.15-4.22c-1.72-0.86-3.58-1.29-5.56-1.29c-1.75,0-3.22,0.23-4.44,0.68c-1.21,0.46-2.3,0.96-3.27,1.52
					v25.24h-5.82v-25.08c0-1.01,0.17-1.82,0.51-2.43c0.34-0.61,1.04-1.24,2.11-1.9c1.31-0.76,2.87-1.46,4.69-2.09
					c1.82-0.63,3.89-0.95,6.22-0.95c3.2,0,6.1,0.65,8.69,1.94c2.59,1.29,4.65,3.29,6.18,6s2.29,6.22,2.29,10.53
					c0,4.16-0.69,7.61-2.07,10.38c-1.38,2.76-3.31,4.83-5.78,6.2c-2.47,1.37-5.31,2.05-8.51,2.05
					C408.05,418.54,406.1,418.23,404.28,417.59z M401.62,431.24c-0.24,0.1-0.61,0.21-1.09,0.34c-0.49,0.13-1.02,0.19-1.6,0.19
					c-1.02,0-1.79-0.23-2.33-0.68c-0.53-0.46-0.8-1.17-0.8-2.13V411.7l5.82,0.15V431.24z"/>
			</g>
		</g>
	</g>
	<g>
		<path class="st2" d="M278.52,16.09"/>
		<g>
			<path class="st0" d="M193.37,121.47h165.82c13.99,0,23.81,13.78,19.24,27l-14.91,81.69c-2.84,8.22-10.58,13.74-19.27,13.74
				H200.91c-11,0-19.57-9.54-18.41-20.47L193.37,121.47z"/>
			<g>
				<path class="st1" d="M355.31,254.06c-3.92,12.95-15.85,21.81-29.39,21.82l-136.57,0.09c-12.55,0-24.58-5.34-33-14.64
					c-8.42-9.3-12.54-21.8-11.29-34.28l10.97-110.11c1.16-11.6-6.92-22.34-18.38-24.46l-34.27-6.32c-5.95-1.1-9.88-6.81-8.79-12.76
					l0,0c1.1-5.95,6.81-9.88,12.76-8.79l34.27,6.32c22.58,4.17,38.49,25.33,36.21,48.18l-10.9,109.38
					c-0.62,6.19,0.99,12.52,4.95,17.32c4.39,5.31,10.64,8.25,17.46,8.25H355.31L355.31,254.06z"/>
			</g>
			
				<ellipse transform="matrix(0.6769 -0.7361 0.7361 0.6769 -164.5269 236.213)" class="st1" cx="186.81" cy="305.52" rx="22.21" ry="22.21"/>
			
				<ellipse transform="matrix(0.7071 -0.7071 0.7071 0.7071 -130.744 295.404)" class="st1" cx="291.21" cy="305.52" rx="22.21" ry="22.21"/>
			<path class="st0" d="M241.66,118.37"/>
		</g>
		<path class="st3" d="M237.55,137.72l-3.28,32.01c-1.9,18.64,10.63,33.33,29.14,34.19l19.19,0.88c0.15,0.01,0.3,0.01,0.45,0.02
			c18.44,0.61,36.64-13.22,41.56-31.69l8.59-32.21c0.77-2.91-0.91-5.54-3.77-5.88c-0.15-0.02-0.3-0.03-0.45-0.03
			c-2.71-0.09-5.39,1.92-6.13,4.68l-8.59,32.21c-3.46,13-16.18,22.77-29.24,22.34c-0.12,0-0.25-0.01-0.37-0.02l-19.19-0.88
			c-13.05-0.6-21.88-10.96-20.54-24.09l3.28-32.01c0.28-2.77-1.61-4.96-4.33-5.05c-0.15-0.01-0.3,0-0.45,0
			C240.48,132.32,237.85,134.8,237.55,137.72z"/>
		<path class="st1" d="M126.96,186.18l-22.79,0.15l-0.15-22.79c-0.06-8.37,6.69-15.21,15.06-15.27l22.79-0.15l0.15,22.8
			C142.08,179.29,135.33,186.12,126.96,186.18z"/>
		<path class="st1" d="M101.39,244.74l-24.23,0.16L77,220.68c-0.06-8.9,7.11-16.16,16.01-16.22l24.23-0.16l0.16,24.23
			C117.46,237.42,110.29,244.68,101.39,244.74z"/>
		<path class="st1" d="M65.34,207.71l-16.19,0.11l-0.11-16.19c-0.04-5.95,4.75-10.81,10.7-10.85l16.19-0.11l0.11,16.19
			C76.08,202.81,71.29,207.67,65.34,207.71z"/>
	</g>
</g>
</svg>
