<?xml version="1.0" encoding="utf-8"?>
<!-- Generator: Adobe Illustrator 24.2.3, SVG Export Plug-In . SVG Version: 6.00 Build 0)  -->
<svg version="1.1" xmlns="http://www.w3.org/2000/svg" xmlns:xlink="http://www.w3.org/1999/xlink" x="0px" y="0px"
	 viewBox="0 0 750 500" style="enable-background:new 0 0 750 500;" xml:space="preserve">
<style type="text/css">
	.st0{fill:#FFFFFF;}
	.st1{fill:#D3EFE5;}
	.st2{fill:#8FB9AB;}
	.st3{fill:#79A897;}
	.st4{fill:#5E9680;}
	.st5{fill:#B2B2B2;}
	.st6{fill:#9CDBD9;}
	.st7{fill:#FFFAF5;}
	.st8{fill:none;stroke:#81C6C2;stroke-width:6;stroke-miterlimit:10;}
	.st9{fill:#9B9B9B;}
	.st10{fill:#CCCCCC;}
	.st11{fill:#F4D096;}
	.st12{fill:#314D63;}
	.st13{fill:#EE8A73;}
	.st14{opacity:0.45;fill:#B2B2B2;}
	.st15{fill:none;stroke:#D16254;stroke-width:4;stroke-miterlimit:10;}
	.st16{fill:#E2BB81;}
	.st17{opacity:0.5;fill:#B2B2B2;}
	.st18{fill:#EAA292;}
	.st19{fill:#F7B39F;}
	.st20{opacity:0.47;fill:#B2B2B2;}
</style>
<g id="BACKGROUND">
	<rect class="st0" width="750" height="500"/>
</g>
<g id="OBJECTS">
	<g>
		<g>
			<path class="st1" d="M687.62,439.43c8.78-29.8,5.03-63.08-10.16-90.19c-15.19-27.1-41.61-47.68-71.61-55.76
				c38.3-30.48,51.51-87.45,33.43-132.94c-18.08-45.49-64.56-77.31-113.37-81.02c-48.81-3.71-98.1,19.34-129.28,57.08
				c-27.95-49.58-80.83-86.53-137.74-87.39c-56.91-0.86-114.17,39.23-125.54,95c-5.66,27.75-0.42,56.42,4.82,84.25
				c-28.83-3.32-57.69,14.28-72.13,39.46c-14.44,25.17-15.8,56.39-8.41,84.46c7.39,28.07,22.82,63.93,40.37,87.04H687.62z"/>
		</g>
		<g>
			<path class="st2" d="M224.12,265.23c-0.13,0.94-0.27,1.89-0.41,2.84c0,0-1.01-0.15-2.85-0.52
				c-20.09-3.98-139.44-33.89-131.31-180.84c0.05-1.04,0.12-2.09,0.19-3.15c0,0,0.99,0.14,2.8,0.47
				C113.5,87.85,244.55,117.78,224.12,265.23z"/>
			<path class="st3" d="M223.71,268.07L89.74,83.56C89.74,83.56,248.16,105.3,223.71,268.07z"/>
			<g>
				<path class="st4" d="M224.88,269.69c-0.35,0.26-0.76,0.38-1.17,0.38c-0.62,0-1.23-0.28-1.62-0.82l-1.23-1.7l-27.66-38.08
					l-3.27-4.51l-25.87-35.63l-3-4.14l-26.84-36.96l-3.42-4.71L89.55,86.71c0.05-1.04,0.12-2.09,0.19-3.15c0,0,0.99,0.14,2.8,0.47
					l44.03,60.64l1.14,1.56l9.98,13.75l3.13,4.3l25.17,34.68l3.38,4.64l20.83,28.69l3.27,4.51l20.65,28.43l1.21,1.67
					C225.97,267.79,225.78,269.04,224.88,269.69z"/>
			</g>
			<g>
				<path class="st4" d="M135.73,148.47c-0.12,0-0.25-0.01-0.37-0.03l-35.42-6.6c-1.09-0.2-1.8-1.25-1.6-2.33
					c0.2-1.09,1.25-1.8,2.33-1.6l35.42,6.6c1.09,0.2,1.8,1.25,1.6,2.33C137.52,147.8,136.68,148.47,135.73,148.47z"/>
			</g>
			<g>
				<path class="st4" d="M163.05,189.6c-0.12,0-0.25-0.01-0.37-0.03l-35.42-6.6c-1.09-0.2-1.8-1.25-1.6-2.33
					c0.2-1.09,1.25-1.8,2.33-1.6l35.42,6.6c1.09,0.2,1.8,1.25,1.6,2.33C164.83,188.93,163.99,189.6,163.05,189.6z"/>
			</g>
			<g>
				<path class="st4" d="M192.77,229.52c-0.12,0-0.25-0.01-0.37-0.03l-35.42-6.6c-1.09-0.2-1.8-1.25-1.6-2.33
					c0.2-1.09,1.25-1.8,2.33-1.6l35.42,6.6c1.09,0.2,1.8,1.25,1.6,2.33C194.55,228.85,193.71,229.52,192.77,229.52z"/>
			</g>
			<g>
				<path class="st4" d="M149.28,165.01c-0.09,0-0.19-0.01-0.29-0.02c-1.09-0.16-1.85-1.17-1.7-2.26l5.12-35.67
					c0.16-1.09,1.17-1.86,2.26-1.7c1.09,0.16,1.85,1.17,1.7,2.26l-5.12,35.67C151.11,164.29,150.26,165.01,149.28,165.01z"/>
			</g>
			<g>
				<path class="st4" d="M177.35,205.59c-0.09,0-0.19-0.01-0.29-0.02c-1.09-0.16-1.85-1.17-1.7-2.26l5.12-35.67
					c0.16-1.09,1.17-1.86,2.26-1.7c1.09,0.16,1.85,1.17,1.7,2.26l-5.12,35.67C179.19,204.87,178.33,205.59,177.35,205.59z"/>
			</g>
			<g>
				<path class="st4" d="M201.72,237.85c-0.09,0-0.19-0.01-0.29-0.02c-1.09-0.16-1.85-1.17-1.7-2.26l5.12-35.67
					c0.16-1.09,1.17-1.86,2.26-1.7c1.09,0.16,1.85,1.17,1.7,2.26l-5.12,35.67C203.55,237.13,202.69,237.85,201.72,237.85z"/>
			</g>
		</g>
		<path class="st5" d="M52.5,208.97c66.24,115.65,174.08,64.69,174.08,64.69C169.73,152.25,52.5,208.97,52.5,208.97z"/>
		<g>
			<path class="st2" d="M226.58,282.13c0,0-0.93,0.44-2.66,1.14c-16.82,6.81-109.67,38.54-169.84-63.11
				c-0.53-0.9-1.05-1.8-1.58-2.72c0,0,0.91-0.44,2.62-1.17c17.47-7.4,118.02-44.24,170.22,63.26
				C225.76,280.39,226.17,281.25,226.58,282.13z"/>
			<path class="st3" d="M226.58,282.13L52.5,217.44C52.5,217.44,169.73,160.72,226.58,282.13z"/>
			<path class="st4" d="M228.45,282.83c-0.3,0.8-1.06,1.3-1.87,1.3c-0.24,0-0.47-0.04-0.7-0.13l-1.96-0.73l-79.57-29.56
				c-0.21,0.37-0.53,0.69-0.95,0.88l-31.48,13.63c-0.26,0.11-0.53,0.16-0.8,0.16c-0.77,0-1.51-0.45-1.83-1.2
				c-0.44-1.02,0.02-2.19,1.04-2.63l29.18-12.64l-38.98-14.49l-20.24,7.92c-0.23,0.1-0.48,0.14-0.72,0.14
				c-0.8,0-1.56-0.48-1.87-1.27c-0.4-1.03,0.11-2.19,1.14-2.59l16.06-6.29l-40.82-15.17c-0.53-0.9-1.05-1.8-1.58-2.72
				c0,0,0.91-0.44,2.62-1.17l45.4,16.88c0.87-0.26,1.8,0.09,2.27,0.84l13.99,5.2l-12.03-28.06c-0.43-1.02,0.04-2.19,1.05-2.63
				c1.02-0.43,2.19,0.04,2.63,1.05l13.51,31.53c0.01,0.01,0.01,0.03,0.01,0.04l41.79,15.52l-12.34-28.78
				c-0.43-1.02,0.04-2.19,1.05-2.63c1.02-0.43,2.2,0.04,2.63,1.05l13.51,31.53c0.1,0.23,0.15,0.46,0.16,0.7l56.59,21.02l1.93,0.72
				C228.31,280.64,228.83,281.79,228.45,282.83z"/>
		</g>
		<g>
			<path class="st6" d="M586.32,153.7v238.09c0,6.17-3.77,11.47-9.14,13.71c-1.76,0.74-3.7,1.15-5.73,1.15H178.09
				c-3.35,0-6.44-1.11-8.92-2.98c-3.61-2.71-5.94-7.02-5.94-11.88V153.7c0-7.53,5.59-13.75,12.85-14.72
				c0.66-0.09,1.33-0.14,2.01-0.14h393.36c3.54,0,6.78,1.23,9.33,3.3C584.16,144.85,586.32,149.02,586.32,153.7z"/>
			<rect x="196.33" y="173.34" class="st7" width="356.89" height="198.8"/>
			<rect x="196.33" y="173.34" class="st8" width="356.89" height="198.8"/>
			<rect x="298.53" y="402.38" class="st6" width="152.47" height="26.59"/>
			<path class="st6" d="M533.49,441.07H216.05c-4.09,0-7.41-3.32-7.41-7.41l0,0c0-4.09,3.32-7.41,7.41-7.41h317.44
				c4.09,0,7.41,3.32,7.41,7.41l0,0C540.9,437.75,537.58,441.07,533.49,441.07z"/>
			<polygon class="st9" points="298.13,406.43 450.43,406.43 298.13,426.13 			"/>
			<path class="st5" d="M580.78,142.14L169.17,403.67c-3.61-2.71-5.94-7.02-5.94-11.88V153.7c0-7.53,5.59-13.75,12.85-14.72
				c0.66-0.09,1.33-0.14,2.01-0.14h393.36C574.99,138.84,578.23,140.07,580.78,142.14z"/>
		</g>
		<g>
			<path class="st10" d="M426.59,195.33H292.14c-7.03,0-12.74,5.72-12.74,12.74v110.42c0,7.03,5.72,12.74,12.74,12.74h134.45
				c7.03,0,12.74-5.72,12.74-12.74V208.07C439.33,201.04,433.61,195.33,426.59,195.33z"/>
			<g>
				<path class="st7" d="M430.2,326.18H295.76c-4.76,0-8.62-3.86-8.62-8.62V207.13c0-4.76,3.86-8.62,8.62-8.62H430.2
					c4.76,0,8.62,3.86,8.62,8.62v110.42C438.82,322.32,434.97,326.18,430.2,326.18z"/>
				<path class="st2" d="M287.71,282.71c0,0,19.58-29.57,54.74-22.66c35.16,6.91,45.39,19.97,63.64,17.28
					c18.25-2.69,29.37-12.67,29.37-12.67v52.16c0,4.7-4.42,8.51-9.86,8.51H297.93c-5.41,0-9.81-3.76-9.86-8.43L287.71,282.71z"/>
				
					<ellipse transform="matrix(0.2283 -0.9736 0.9736 0.2283 24.8061 491.3816)" class="st11" cx="322.38" cy="230.04" rx="14.64" ry="14.64"/>
				<path class="st6" d="M424.24,227.04c-4.05-3.96-10.38-4.64-15.27-2.23c-2.64-7.3-7.47-14.39-16.18-13.71
					c-8.61,0.68-12.53,8.42-14.49,15.95c-4.19-2.53-9.46-3.18-13.74-0.22c-3.13,2.17-4.92,5.88-4.81,9.53
					c-0.82,5.25,3,10.74,7.76,13.26c5.47,2.89,11.7,2.17,17-0.51c3.13,3.94,4.79,6.19,12.15,6.22c3.34,0.01,6.54-1.6,8.38-4.39
					c0.01-0.02,0.03-0.04,0.04-0.06c0.59-0.9,1.18-1.97,1.18-1.97s9.27,6.45,18.39-1.76C430.19,242.16,429.67,232.37,424.24,227.04z
					"/>
				<path class="st12" d="M430.2,330.3H295.76c-7.03,0-12.74-5.72-12.74-12.74V207.13c0-7.03,5.72-12.74,12.74-12.74H430.2
					c7.03,0,12.74,5.72,12.74,12.74v110.42C442.95,324.58,437.23,330.3,430.2,330.3z M295.76,202.64c-2.48,0-4.5,2.02-4.5,4.5
					v110.42c0,2.48,2.02,4.5,4.5,4.5H430.2c2.48,0,4.5-2.02,4.5-4.5V207.13c0-2.48-2.02-4.5-4.5-4.5H295.76z"/>
			</g>
			<path class="st10" d="M447.36,211.79H312.92c-7.03,0-12.74,5.72-12.74,12.74v110.42c0,7.03,5.72,12.74,12.74,12.74h134.45
				c7.03,0,12.74-5.72,12.74-12.74V224.53C460.11,217.51,454.39,211.79,447.36,211.79z"/>
			<g>
				<path class="st7" d="M451.98,343.11H317.53c-4.76,0-8.62-3.86-8.62-8.62V224.07c0-4.76,3.86-8.62,8.62-8.62h134.45
					c4.76,0,8.62,3.86,8.62,8.62v110.42C460.6,339.25,456.74,343.11,451.98,343.11z"/>
				<path class="st2" d="M309.49,299.64c0,0,19.58-29.57,54.74-22.66c35.16,6.91,45.39,19.97,63.64,17.28
					c18.25-2.69,29.37-12.67,29.37-12.67v52.16c0,4.7-4.42,8.51-9.86,8.51H319.71c-5.41,0-9.81-3.76-9.86-8.43L309.49,299.64z"/>
				
					<ellipse transform="matrix(0.2584 -0.966 0.966 0.2584 16.6314 515.6236)" class="st11" cx="344.15" cy="246.98" rx="14.64" ry="14.64"/>
				<path class="st6" d="M446.02,243.98c-4.05-3.96-10.38-4.64-15.27-2.23c-2.64-7.3-7.47-14.39-16.18-13.71
					c-8.61,0.68-12.53,8.42-14.49,15.95c-4.19-2.53-9.46-3.18-13.74-0.22c-3.13,2.17-4.92,5.88-4.81,9.53
					c-0.82,5.25,3,10.74,7.76,13.26c5.47,2.89,11.7,2.17,17-0.51c3.13,3.94,4.79,6.19,12.15,6.22c3.34,0.01,6.54-1.6,8.38-4.39
					c0.01-0.02,0.03-0.04,0.04-0.06c0.59-0.9,1.18-1.97,1.18-1.97s9.27,6.45,18.39-1.76C451.96,259.1,451.45,249.3,446.02,243.98z"
					/>
				<path class="st12" d="M451.98,347.24H317.53c-7.03,0-12.74-5.72-12.74-12.74V224.07c0-7.03,5.72-12.74,12.74-12.74h134.45
					c7.03,0,12.74,5.72,12.74,12.74v110.42C464.72,341.52,459.01,347.24,451.98,347.24z M317.53,219.57c-2.48,0-4.5,2.02-4.5,4.5
					v110.42c0,2.48,2.02,4.5,4.5,4.5h134.45c2.48,0,4.5-2.02,4.5-4.5V224.07c0-2.48-2.02-4.5-4.5-4.5H317.53z"/>
			</g>
		</g>
		<path class="st5" d="M621.76,118.11c-0.79-0.05-1.57-0.07-2.37-0.07c-4.12,0-8.1,0.63-11.84,1.79
			c-2.98-19.12-19.51-33.75-39.46-33.75c-20.04,0-36.64,14.77-39.51,34.01c-3.97-1.32-8.21-2.05-12.63-2.05
			c-22.06,0-39.95,17.89-39.95,39.95s17.89,39.94,39.95,39.94h2.49h100.95c22.06,0,39.94-17.88,39.94-39.94
			C659.33,136.73,642.72,119.34,621.76,118.11z"/>
		<g>
			<path class="st13" d="M667.4,157.99c0,22.06-17.88,39.94-39.94,39.94H524.02c-22.06,0-39.95-17.88-39.95-39.94
				s17.89-39.95,39.95-39.95c4.42,0,8.66,0.73,12.63,2.05c2.87-19.24,19.47-34.01,39.51-34.01c19.95,0,36.48,14.63,39.46,33.75
				c3.74-1.16,7.72-1.79,11.84-1.79c0.8,0,1.58,0.02,2.37,0.07C650.79,119.34,667.4,136.73,667.4,157.99z"/>
			<path class="st7" d="M606.08,146.38l-31.67-36.75l-31.59,36.75c-1.62,1.88-1.4,4.73,0.48,6.35c0.85,0.73,1.89,1.09,2.93,1.09
				c1.27,0,2.52-0.53,3.42-1.57l19.85-23.1v50.66c0,2.49,2.01,4.5,4.5,4.5c2.49,0,4.5-2.01,4.5-4.5v-51.64l20.76,24.09
				c1.62,1.88,4.46,2.09,6.35,0.47C607.5,151.1,607.71,148.26,606.08,146.38z"/>
			<path class="st14" d="M629.83,118.11c-37.25,5.84-89.68,24.06-103.32,79.82h-2.49c-22.06,0-39.95-17.88-39.95-39.94
				s17.89-39.95,39.95-39.95c4.42,0,8.66,0.73,12.63,2.05c2.87-19.24,19.47-34.01,39.51-34.01c19.95,0,36.48,14.63,39.46,33.75
				c3.74-1.16,7.72-1.79,11.84-1.79C628.26,118.04,629.04,118.06,629.83,118.11z"/>
			<path class="st15" d="M667.4,157.99c0,22.06-17.88,39.94-39.94,39.94H524.02c-22.06,0-39.95-17.88-39.95-39.94
				s17.89-39.95,39.95-39.95c4.42,0,8.66,0.73,12.63,2.05c2.87-19.24,19.47-34.01,39.51-34.01c19.95,0,36.48,14.63,39.46,33.75
				c3.74-1.16,7.72-1.79,11.84-1.79c0.8,0,1.58,0.02,2.37,0.07C650.79,119.34,667.4,136.73,667.4,157.99z"/>
		</g>
		<path class="st5" d="M311.48,371.59l-25.31-30.55c-1.07-1.3-3.07-1.27-4.11,0.05l-8.46,10.77v-30.63c0-4.46-3.32-8.12-7.62-8.67
			c-0.37-0.06-0.75-0.08-1.13-0.08H160.36v-2.6c0-5.87-4.75-10.63-10.62-10.63h-22.36c-3.89,0-7.04,3.16-7.04,7.05l-0.36,11.84
			h-12.54c-7.55,0-13.09,6.7-11.24,13.6l20.79,77.49c0.92,3.42,3.48,6.11,6.78,7.4c0.24,0.15,0.48,0.28,0.73,0.4
			c1.15,0.56,2.44,0.87,3.81,0.87h136.54c4.84,0,8.75-3.92,8.75-8.75v-2.99c22.73-4.36,23.12-22.5,22.19-30.25h13.66
			C311.68,375.91,312.91,373.31,311.48,371.59z M273.6,385.54v-9.63h0.81C274.58,379.55,274.27,382.74,273.6,385.54z"/>
		<g>
			<path class="st16" d="M247.71,417.48h-127.6c-1.24,0-2.45-0.19-3.58-0.55c-0.3-0.08-0.59-0.18-0.87-0.3
				c-3.3-1.29-5.86-3.98-6.78-7.4l-20.79-77.49c-1.85-6.9,3.69-13.6,11.24-13.6h127.6c5.31,0,9.94,3.4,11.24,8.25l0.16,0.6
				l20.62,76.9C260.8,410.78,255.26,417.48,247.71,417.48z"/>
			<path class="st11" d="M265.49,321.23v87.92c0,4.83-3.91,8.75-8.75,8.75H120.2c-1.37,0-2.66-0.31-3.81-0.87
				c-0.25-0.12-0.49-0.25-0.73-0.4c-2.52-1.53-4.21-4.31-4.21-7.48v-87.92c0-0.92,0.14-1.81,0.41-2.64l0.01-0.45l0.36-11.84
				c0-3.89,3.15-7.05,7.04-7.05h22.36c5.87,0,10.62,4.76,10.62,10.63v2.6h104.49c0.38,0,0.76,0.02,1.13,0.08
				C262.17,313.11,265.49,316.77,265.49,321.23z"/>
			<path class="st13" d="M303.38,371.59l-25.31-30.55c-1.07-1.3-3.07-1.27-4.11,0.05l-24,30.55c-1.36,1.73-0.13,4.27,2.08,4.27
				h14.27c1.38,28.94-27.75,29.83-27.75,29.83c49.33,7.84,50.33-19.76,49.13-29.83h13.66C303.58,375.91,304.8,373.31,303.38,371.59z
				"/>
			<path class="st17" d="M257.87,312.56l-19.54,14.43l-121.8,89.94l-0.14,0.1c-0.25-0.12-0.49-0.25-0.73-0.4
				c-3.3-1.29-5.86-3.98-6.78-7.4l-20.79-77.49c-1.85-6.9,3.69-13.6,11.24-13.6h12.54l0.36-11.84c0-3.89,3.15-7.05,7.04-7.05h22.36
				c5.87,0,10.62,4.76,10.62,10.63v2.6h104.49C257.12,312.48,257.5,312.5,257.87,312.56z"/>
		</g>
		<path class="st5" d="M654.79,417.48c0,0-0.01,0.02-0.02,0.05l-2.95-3.72c-10.23-25.55-29.73-28.13-29.73-30.2
			c0.07-8.91,0.63-21.16,1.92-29.42c1.41-9,0.11-16.05-1.01-19.95l1.14-0.01c0,0-0.22-14.84-0.67-27.57
			c8.22-2.67,13.98-12.46,8.8-20.47c-1.32-2.03-3.25-3.54-4.64-5.5s-1.44-4.19-1.15-6.5c0.32-2.66,1.02-5.25,1.24-7.93
			c0.2-2.53-0.04-5.1-0.55-7.59c-1.18-5.72-7.08-17.91-14.3-19.33c-1.45-0.55-3.35-0.77-4.8-0.16c-1.03,0.16-2,0.58-2.74,1.29
			c-0.39,0.37-0.73,0.82-0.98,1.35c-0.16,0.28-0.28,0.59-0.39,0.9c-4.1,2.8-7.29,7.84-7.99,12.29c-0.81,5.2,1.11,11.08,5.9,12.5
			c0.11,1.75,0.31,5.45,0.17,7.04c-0.02-0.01-0.05-0.01-0.07-0.02c-0.28-0.09-0.86,0.2-1.59,0.83c-7.65-3.62-16.7-7.84-16.7-7.84
			s-6.36-10.26-10.47-17.33l12.04-3.55c2.1-0.62,3.31-2.83,2.69-4.94l-9.74-33.03c-0.62-2.1-2.83-3.31-4.94-2.69l-40.22,11.86
			c-2.1,0.62-3.31,2.83-2.69,4.94l9.74,33.03c0.62,2.1,2.83,3.31,4.94,2.69l4.21-1.24c3.59,11.36,9.36,30.02,12.65,32.74
			c3.02,2.5,18.05,3.63,29.76,3.85c-0.27,1.42-0.5,2.89-0.66,4.46c-1.6,16.01-4.34,36.14-4.34,36.14l3.62-0.02h0l-2.14,8.34
			c0,0-3.55,33.19-4.05,38.77c-0.51,5.57,0.76,46.62,0.51,48.9h1.96l0.2,5.59c0,0,0.16,7.06-0.89,11.09
			c-1.05,4.03-3.68,1.23-3.86,3.33c-0.18,2.1,6.13,1.75,8.06,1.05c1.93-0.7,0.35-7.01,2.1-8.24c1.75-1.23,2.98-2.98,2.45-4.73
			c-0.53-1.75-2.16-2.33-2.16-2.33l0.52-5.75h1.74c0,0,5.32-35.22,5.07-47.13c-0.09-4.15,2.31-11.51,5.46-19.33
			c1.62,12.08,3.32,23.8,4.21,27.05c1.91,6.93,34.26,25.28,37.89,27.31l3.46,3.24c-0.01,0.01-0.02,0.02-0.03,0.02
			c0,0-2.43,10.14-3.53,12.01c-1.1,1.88,2.3,2.95,3.93,0.73c1.62-2.21,4.14-6.08,5.17-7.2c0.23-0.25,0.52-0.49,0.83-0.73
			c1.1-0.85,2.57-1.74,3.42-3.2C661.68,421.35,654.79,417.48,654.79,417.48z M568.09,280.02c-3.4-2.44-7.79-16.82-10.44-25.23
			l7.27-2.14c3.46,5.65,7.7,12.49,9.13,15.98c0.93,2.28,6.2,6.75,12.32,11.37C578.6,281.02,570.41,281.69,568.09,280.02z"/>
		<g>
			<path class="st18" d="M614.18,295.1c0,0-31.51-20.57-33.92-26.48c-2.41-5.91-12.91-21.44-14-24.51
				c-1.09-3.06,0.22-5.91,3.72-5.25c3.5,0.66,4.81,1.97,6.13,5.25c1.31,3.28,13.79,23.41,13.79,23.41s26.26,12.25,27.13,12.91
				C617.9,281.1,624.68,289.63,614.18,295.1z"/>
			<g>
				<path class="st7" d="M591.09,245.42l-40.22,11.86c-1.42,0.42-2.92-0.39-3.34-1.82l-9.74-33.03c-0.42-1.42,0.39-2.92,1.82-3.34
					l40.22-11.86c1.42-0.42,2.92,0.39,3.34,1.82l9.74,33.03C593.33,243.51,592.51,245,591.09,245.42z"/>
				<path class="st2" d="M544.63,244.98c0,0,3.25-10.57,14.38-11.6c11.13-1.03,15.34,1.97,20.56-0.44c5.22-2.41,7.67-6.38,7.67-6.38
					l4.6,15.6c0.41,1.41-0.57,2.94-2.2,3.42l-38.19,11.26c-1.62,0.48-3.27-0.26-3.69-1.65L544.63,244.98z"/>
				<path class="st11" d="M554.73,224.88c0.71,2.42-0.67,4.96-3.09,5.67c-2.42,0.71-4.96-0.67-5.67-3.09
					c-0.71-2.42,0.67-4.96,3.09-5.67C551.48,221.08,554.02,222.46,554.73,224.88z"/>
				<path class="st6" d="M580.56,216.29c-1.56-0.83-3.51-0.47-4.77,0.68c-1.43-1.95-3.5-3.65-6.05-2.68
					c-2.52,0.96-3.01,3.62-2.93,6.05c-1.48-0.39-3.11-0.12-4.13,1.15c-0.75,0.93-0.95,2.19-0.6,3.27c0.22,1.64,1.84,2.95,3.49,3.28
					c1.89,0.38,3.69-0.38,5.04-1.65c1.28,0.9,1.98,1.43,4.18,0.79c1-0.29,1.82-1.05,2.12-2.05c0-0.01,0-0.01,0.01-0.02
					c0.1-0.32,0.18-0.69,0.18-0.69s3.34,1.11,5.35-2.15C583.68,220.29,582.66,217.41,580.56,216.29z"/>
				<path class="st12" d="M591.45,246.65l-40.22,11.86c-2.1,0.62-4.32-0.59-4.94-2.69l-9.74-33.03c-0.62-2.1,0.59-4.32,2.69-4.94
					L579.47,206c2.1-0.62,4.32,0.59,4.94,2.69l9.74,33.03C594.76,243.82,593.55,246.03,591.45,246.65z M539.98,220.32
					c-0.74,0.22-1.17,1-0.95,1.74l9.74,33.03c0.22,0.74,1,1.17,1.74,0.95l40.22-11.86c0.74-0.22,1.17-1,0.95-1.74l-9.74-33.03
					c-0.22-0.74-1-1.17-1.74-0.95L539.98,220.32z"/>
			</g>
			<polygon class="st19" points="592.72,429.63 592.94,436.03 598.66,436.2 599.28,429.29 			"/>
			<polygon class="st19" points="661.75,418.5 658.15,421.72 657.63,422.18 657,421.59 653.54,418.35 652.7,417.57 653.1,417.18 
				657.36,412.96 658.03,413.81 660.98,417.53 			"/>
			<path class="st3" d="M658.27,414.41l-4.04,3.79l-0.36,0.34c0,0-0.11-0.06-0.33-0.19c-3.63-2.03-35.98-20.38-37.89-27.31
				c-0.89-3.25-2.59-14.98-4.21-27.06c-1.66-12.48-3.24-25.35-3.76-29.61c-0.12-0.95-0.18-1.47-0.18-1.47l9.65-0.95l10.43-1.04
				l0.45-0.04c0,0,0.56,1.19,1.18,3.37c1.12,3.9,2.42,10.95,1.01,19.95c-1.29,8.26-1.85,20.51-1.92,29.42
				c0,2.07,19.5,4.65,29.73,30.2C658.11,414.01,658.19,414.21,658.27,414.41z"/>
			<path class="st2" d="M590.28,381.55c0.51-5.57,4.05-38.77,4.05-38.77l2.28-8.87l0.46-1.99l1.18-5.39l28.59,1.48
				c5.78,19.4-7.72,26.03-11.93,27.81c-4.68,10.52-9.05,21.91-8.93,27.5c0.25,11.91-5.07,47.13-5.07,47.13h-10.13
				C591.04,428.17,589.77,387.12,590.28,381.55z"/>
			<path class="st18" d="M608.02,266.57c0,0,0.5,6.97,0.17,8.46l5.81,0.17l1-9.79L608.02,266.57z"/>
			<path class="st13" d="M630.35,334.23l-1.14,0.01h-1.1l-10.86,0.07l-9.57,0.06l-11.21,0.07l-3.62,0.02c0,0,2.74-20.13,4.34-36.14
				c1.6-16.01,9.61-24.24,10.98-23.78c0.79,0.26,2.35,0.3,3.53,0.28c0.85-0.01,1.5-0.05,1.5-0.05s6.41,0,8.01,0.45
				c0.4,0.12,1.03,0.58,1.77,1.38c2.2,2.38,5.32,7.78,6,16c0.28,3.34,0.52,8.5,0.7,14.06C630.13,319.39,630.35,334.23,630.35,334.23
				z"/>
			<path class="st19" d="M602.18,255.02c0.92-5.85,6.12-12.72,12.07-14.18c8.51-2.08,10.58,9.69,9.28,15.7
				c-1.19,5.49-6.23,10.45-11.87,11.21C604.27,268.74,601.19,261.36,602.18,255.02z"/>
			<path class="st19" d="M616.24,287.59c0.99-5.18-3.16-9.95-8.43-9.7c-0.04,0-0.09,0-0.13,0.01c-4.33,0.22-29.05,5.24-33.37,2.13
				c-4.33-3.11-10.25-25.54-12.18-30.42c-1.92-4.88-0.72-8.88-3.36-9.77c-2.64-0.89-4.09-1.78-6.25,0.22c-2.16,2-1.68,5.55,0,8.66
				c1.68,3.11,11.01,37.53,15.58,41.3c4.57,3.77,36.57,4.42,43.06,3.54C614.09,293.15,615.67,290.54,616.24,287.59z"/>
			<path class="st6" d="M666.79,423.22c-0.85,1.46-2.32,2.35-3.42,3.2c-0.31,0.24-0.6,0.48-0.83,0.73c-1.03,1.12-3.55,4.99-5.17,7.2
				c-1.63,2.22-5.03,1.15-3.93-0.73c1.1-1.87,3.53-12.01,3.53-12.01c0.01,0,0.02-0.01,0.03-0.02c0.23-0.09,0.45-0.2,0.66-0.32
				c2.32-1.27,3.19-3.4,3.32-3.74c0.01-0.03,0.02-0.05,0.02-0.05S667.89,421.35,666.79,423.22z"/>
			<path class="st12" d="M629.68,306.66c-0.42,0.14-0.85,0.26-1.29,0.36c-3.69,0.84-7.48,0.52-10.71-1.18
				c-1.02-0.54-1.99-1.22-2.88-2.04c-3.62-3.34-5.01-8.42-4.22-13.2c0.49-2.96,2.43-5.27,3.1-8.11c0.63-2.69-0.81-5.27-1.98-7.67
				c-0.11-0.26-0.24-0.52-0.35-0.77c-2.07-4.59-3.23-10.3,1.79-13.43c0.18-0.12,0.38-0.17,0.58-0.19c0.06-0.03,0.12-0.05,0.19-0.07
				c0.54,0.69,1.32,1.31,2.18,1.31c0.29,0,0.59-0.08,0.89-0.24c0.71-0.38,0.98-1.22,0.91-1.98c-0.14-1.58-1.48-2.86-2.95-2.37
				c-2.06-1.34-3.44-3.35-4.3-5.79c-0.9-2.53-1.56-6.87-0.08-9.47c0.25-0.53,0.59-0.98,0.98-1.35c0.74-0.71,1.71-1.13,2.74-1.29
				c1.45-0.61,3.35-0.39,4.8,0.16c7.22,1.42,13.12,13.61,14.3,19.33c0.51,2.49,0.75,5.06,0.55,7.59c-0.22,2.68-0.92,5.27-1.24,7.93
				c-0.29,2.31-0.24,4.54,1.15,6.5s3.32,3.47,4.64,5.5C643.66,294.2,637.9,303.99,629.68,306.66z"/>
			<path class="st6" d="M592.94,436.03c0,0,0.16,7.06-0.89,11.09c-1.05,4.03-3.68,1.23-3.86,3.33c-0.18,2.1,6.13,1.75,8.06,1.05
				c1.93-0.7,0.35-7.01,2.1-8.24c1.75-1.23,2.98-2.98,2.45-4.73c-0.53-1.75-2.16-2.33-2.16-2.33L592.94,436.03z"/>
			<path class="st20" d="M666.79,423.22c-0.85,1.46-2.32,2.35-3.42,3.2c-1.43-1.3-3.21-2.9-5.22-4.7c-0.16-0.15-0.32-0.29-0.49-0.45
				c-1.09-0.97-2.24-2-3.43-3.07c-0.37-0.34-0.75-0.68-1.13-1.02c-11.83-10.62-27.36-24.52-30.84-27.42
				c-3.23-2.69-4.06-19.19-4.49-35.34c-0.19-7.19-0.31-14.3-0.52-20.11c-0.03-0.81-0.06-1.6-0.1-2.36
				c-0.07-1.63-0.16-3.13-0.26-4.46c-0.12-1.53-0.25-2.83-0.42-3.86c-0.63-3.95,0.03-10.39,1.21-17.79
				c1.47-9.24,3.74-19.98,5.3-29.24c1-5.96,1.7-11.3,1.7-15.24c0-8.98-7.3-16.4-13.14-20.89c0.74-0.71,1.71-1.13,2.74-1.29
				c1.45-0.61,3.35-0.39,4.8,0.16c7.22,1.42,13.12,13.61,14.3,19.33c0.51,2.49,0.75,5.06,0.55,7.59c-0.22,2.68-0.92,5.27-1.24,7.93
				c-0.29,2.31-0.24,4.54,1.15,6.5s3.32,3.47,4.64,5.5c5.18,8.01-0.58,17.8-8.8,20.47c0.45,12.73,0.67,27.57,0.67,27.57l-1.14,0.01
				c1.12,3.9,2.42,10.95,1.01,19.95c-1.29,8.26-1.85,20.51-1.92,29.42c0,2.07,19.5,4.65,29.73,30.2l2.95,3.72
				c0.01-0.03,0.02-0.05,0.02-0.05S667.89,421.35,666.79,423.22z"/>
		</g>
	</g>
</g>
<g id="DESIGNED_BY_FREEPIK">
</g>
</svg>
